<svg width="198" height="28" viewBox="0 0 198 28" fill="none" xmlns="http://www.w3.org/2000/svg">
<path d="M16.408 10.024L3.256 15.912L16.408 21.768V23.976L0.792 16.904V14.856L16.408 7.848V10.024ZM39.1095 25.288C36.8908 25.288 34.9495 24.8187 33.2855 23.88C31.6428 22.92 30.3735 21.5653 29.4775 19.816C28.6028 18.0667 28.1655 16.0293 28.1655 13.704C28.1655 11.3787 28.6028 9.352 29.4775 7.624C30.3735 5.87467 31.6428 4.53067 33.2855 3.592C34.9495 2.632 36.8908 2.152 39.1095 2.152C40.6242 2.152 42.0535 2.38667 43.3975 2.856C44.7415 3.32533 45.8722 3.98667 46.7895 4.84L45.4135 7.848C44.3895 7.03733 43.3762 6.45067 42.3735 6.088C41.3708 5.704 40.3042 5.512 39.1735 5.512C36.9975 5.512 35.3122 6.216 34.1175 7.624C32.9442 9.032 32.3575 11.0587 32.3575 13.704C32.3575 16.3707 32.9442 18.408 34.1175 19.816C35.3122 21.224 36.9975 21.928 39.1735 21.928C40.3042 21.928 41.3708 21.7467 42.3735 21.384C43.3762 21 44.3895 20.4027 45.4135 19.592L46.7895 22.6C45.8722 23.4533 44.7415 24.1147 43.3975 24.584C42.0535 25.0533 40.6242 25.288 39.1095 25.288ZM57.0285 25.256C55.4285 25.256 54.0205 24.9253 52.8045 24.264C51.6098 23.6027 50.6818 22.6533 50.0205 21.416C49.3592 20.1787 49.0285 18.7387 49.0285 17.096C49.0285 15.4533 49.3592 14.024 50.0205 12.808C50.6818 11.5707 51.6098 10.6213 52.8045 9.96C54.0205 9.29867 55.4285 8.968 57.0285 8.968C58.6285 8.968 60.0258 9.29867 61.2205 9.96C62.4365 10.6213 63.3645 11.5707 64.0045 12.808C64.6658 14.024 64.9965 15.4533 64.9965 17.096C64.9965 18.7387 64.6658 20.1787 64.0045 21.416C63.3645 22.6533 62.4365 23.6027 61.2205 24.264C60.0258 24.9253 58.6285 25.256 57.0285 25.256ZM56.9965 22.152C58.2978 22.152 59.2898 21.7253 59.9725 20.872C60.6552 20.0187 60.9965 18.76 60.9965 17.096C60.9965 15.4533 60.6552 14.2053 59.9725 13.352C59.2898 12.4773 58.3085 12.04 57.0285 12.04C55.7485 12.04 54.7565 12.4773 54.0525 13.352C53.3698 14.2053 53.0285 15.4533 53.0285 17.096C53.0285 18.76 53.3698 20.0187 54.0525 20.872C54.7352 21.7253 55.7165 22.152 56.9965 22.152ZM83.4028 2.44V25H79.4348V22.472C78.9654 23.3467 78.2828 24.0293 77.3868 24.52C76.5121 25.0107 75.5094 25.256 74.3788 25.256C73.0348 25.256 71.8294 24.9147 70.7628 24.232C69.7174 23.5493 68.8961 22.5893 68.2988 21.352C67.7228 20.0933 67.4348 18.6533 67.4348 17.032C67.4348 15.4107 67.7228 13.992 68.2988 12.776C68.8961 11.56 69.7174 10.6213 70.7628 9.96C71.8081 9.29867 73.0134 8.968 74.3788 8.968C75.5094 8.968 76.5121 9.20267 77.3868 9.672C78.2614 10.1413 78.9334 10.8027 79.4028 11.656V2.44H83.4028ZM75.4348 22.152C76.7148 22.152 77.6961 21.7147 78.3788 20.84C79.0828 19.9653 79.4348 18.7173 79.4348 17.096C79.4348 15.4747 79.0828 14.2373 78.3788 13.384C77.6961 12.5093 76.7254 12.072 75.4668 12.072C74.1868 12.072 73.1948 12.4987 72.4908 13.352C71.7868 14.2053 71.4348 15.432 71.4348 17.032C71.4348 18.6533 71.7868 19.912 72.4908 20.808C73.1948 21.704 74.1761 22.152 75.4348 22.152ZM101.246 17.896H90.5895C90.7175 19.3467 91.1548 20.424 91.9015 21.128C92.6482 21.832 93.7148 22.184 95.1015 22.184C96.8295 22.184 98.4082 21.6293 99.8375 20.52L100.99 23.272C100.264 23.8693 99.3468 24.3493 98.2375 24.712C97.1495 25.0747 96.0508 25.256 94.9415 25.256C92.3815 25.256 90.3548 24.5307 88.8615 23.08C87.3895 21.6293 86.6535 19.6453 86.6535 17.128C86.6535 15.528 86.9735 14.1093 87.6135 12.872C88.2535 11.6347 89.1495 10.6747 90.3015 9.992C91.4748 9.30933 92.7975 8.968 94.2695 8.968C96.4242 8.968 98.1202 9.66133 99.3575 11.048C100.616 12.4347 101.246 14.344 101.246 16.776V17.896ZM94.3655 11.784C93.2988 11.784 92.4348 12.1253 91.7735 12.808C91.1335 13.4907 90.7388 14.472 90.5895 15.752H97.8215C97.7788 14.4507 97.4588 13.4693 96.8615 12.808C96.2642 12.1253 95.4322 11.784 94.3655 11.784ZM123.91 2.44V25H121.318V14.664H107.814V25H105.222V2.44H107.814V12.424H121.318V2.44H123.91ZM142.208 9.416V25H139.68V22.344C139.189 23.2827 138.496 23.9973 137.6 24.488C136.725 24.9787 135.733 25.224 134.624 25.224C132.768 25.224 131.37 24.712 130.432 23.688C129.493 22.6427 129.024 21.1067 129.024 19.08V9.416H131.616V19.016C131.616 20.4027 131.893 21.4267 132.448 22.088C133.002 22.728 133.877 23.048 135.072 23.048C136.437 23.048 137.536 22.6107 138.368 21.736C139.2 20.84 139.616 19.6667 139.616 18.216V9.416H142.208ZM154.865 9.032C156.23 9.032 157.436 9.36267 158.481 10.024C159.526 10.6853 160.337 11.624 160.913 12.84C161.489 14.056 161.777 15.464 161.777 17.064C161.777 18.6853 161.489 20.1147 160.913 21.352C160.337 22.568 159.526 23.5173 158.481 24.2C157.436 24.8827 156.23 25.224 154.865 25.224C153.649 25.224 152.582 24.9573 151.665 24.424C150.769 23.8907 150.086 23.1333 149.617 22.152V25H147.025V2.44H149.617V12.104C150.086 11.1227 150.769 10.3653 151.665 9.832C152.582 9.29867 153.649 9.032 154.865 9.032ZM154.353 23.08C155.868 23.08 157.041 22.5573 157.873 21.512C158.705 20.4453 159.121 18.9627 159.121 17.064C159.121 15.208 158.705 13.768 157.873 12.744C157.041 11.72 155.868 11.208 154.353 11.208C152.838 11.208 151.665 11.72 150.833 12.744C150.022 13.768 149.617 15.2293 149.617 17.128C149.617 19.0267 150.022 20.4987 150.833 21.544C151.665 22.568 152.838 23.08 154.353 23.08ZM170.86 26.376L179.02 0.903999L181.164 1.608L173.004 27.08L170.86 26.376ZM197.971 14.856V16.904L182.355 23.976V21.768L195.507 15.912L182.355 10.024V7.848L197.971 14.856Z" fill="black"/>
</svg>
